<svg width="113" height="18" viewBox="0 0 113 18" fill="none" xmlns="http://www.w3.org/2000/svg">
<path d="M60.4291 6.00794C60.4291 2.75638 57.8137 0.140999 54.5622 0.0703125H43.5352V1.76678V17.1057H48.0591V11.9456H52.0175L56.0466 17.1057H60.8532L56.5414 11.5921C58.8033 10.7439 60.4291 8.55264 60.4291 6.00794ZM48.0591 3.81667H53.9967H54.3501H54.5622C55.6932 3.81667 56.6828 4.80628 56.6828 5.93726C56.6828 7.06823 55.7638 8.05784 54.6329 8.05784H54.5622L53.9967 8.12852H47.9884L48.0591 3.81667Z" fill="#EC1C24"/>
<path d="M11.3024 0H0.275391V17.0353H4.7993V11.8753H11.2317C14.4833 11.8753 17.1694 9.18919 17.1694 5.93763C17.1694 2.75676 14.554 0.0706861 11.3024 0ZM11.3024 8.1289H10.7369H4.7993V3.81705H10.8076H11.161H11.3731C12.5041 3.81705 13.4937 4.80665 13.4937 5.93763C13.3523 7.13929 12.5041 8.05821 11.3024 8.1289Z" fill="#EC1C24"/>
<path d="M30.8819 0H26.4286L18.8652 17.106H23.3185L24.3081 14.9148H33.0731L34.0627 17.106H38.4453L30.8819 0ZM31.3767 11.0977H25.9338L28.6199 5.01871L31.3767 11.0977Z" fill="#EC1C24"/>
<path d="M108.072 17.106H112.525L104.891 0H100.437L92.874 17.106H97.3272L98.3168 14.9148H107.082L108.072 17.106ZM99.9426 11.0977L102.629 5.01871L105.315 11.0977H99.9426Z" fill="#EC1C24"/>
<path d="M77.6059 8.34096L71.8097 0H67.3564V17.106H71.739V7.28066L77.6059 15.5509L83.4022 7.28066V17.106H87.8554V0H83.4022L77.6059 8.34096Z" fill="#EC1C24"/>
</svg>
