<svg width="49" height="40" viewBox="0 0 49 40" fill="none" xmlns="http://www.w3.org/2000/svg">
<path fill-rule="evenodd" clip-rule="evenodd" d="M34.629 6.53072C35.4587 6.53072 36.1313 7.20333 36.1313 8.03303V14.6845C36.1313 15.5142 35.4587 16.1868 34.629 16.1868C33.7993 16.1868 33.1267 15.5142 33.1267 14.6845V8.03303C33.1267 7.20333 33.7993 6.53072 34.629 6.53072ZM34.3544 0.922426C34.533 1.18743 34.6285 1.49976 34.6285 1.81937V2.77419C34.6285 3.82205 33.779 4.67152 32.7311 4.67152H31.6113C30.9959 4.67152 30.4971 5.17035 30.4971 5.78569C30.4971 6.40103 29.9983 6.89986 29.3829 6.89986H20.7195C20.1042 6.89986 19.6053 6.40103 19.6053 5.78569C19.6053 5.17035 19.1065 4.67152 18.4912 4.67152H17.3713C16.3234 4.67152 15.474 3.82206 15.474 2.77419V1.49001C15.474 1.14933 15.6103 0.822825 15.8525 0.583288C16.0913 0.347235 16.4134 0.214844 16.7491 0.214844H33.0239C33.5575 0.214844 34.0561 0.480043 34.3544 0.922426ZM18.0759 16.2462H5.8096C3.05622 16.2462 0.824184 18.4782 0.824219 21.2316L0.824385 34.4402C0.82442 37.1935 3.05651 39.4256 5.80989 39.4256H43.7207C46.4741 39.4256 48.7061 37.1936 48.7061 34.4402L48.7059 21.2316C48.7059 18.4782 46.4738 16.2462 43.7204 16.2462H32.0071C32.002 16.2018 31.9994 16.1566 31.9994 16.1108V9.90634C31.9994 8.85847 31.15 8.00901 30.1021 8.00901H20.0004C18.9525 8.00901 18.103 8.85847 18.103 9.90634V15.9792C18.103 16.0707 18.0937 16.16 18.0759 16.2462ZM16.9774 8.22082C16.9774 7.2874 16.2207 6.53072 15.2873 6.53072C14.3539 6.53072 13.5972 7.2874 13.5972 8.22082V14.4967C13.5972 15.4302 14.3539 16.1868 15.2873 16.1868C16.2207 16.1868 16.9774 15.4302 16.9774 14.4967V8.22082Z" fill="#5DE47B"/>
<rect x="0.665035" y="0.665026" width="42.5617" height="17.9557" rx="3.32513" transform="matrix(1 0 1.24859e-05 1 2.8164 18.1523)" stroke="#2C2E36" stroke-width="1.33005"/>
</svg>
