<svg width="49" height="40" viewBox="0 0 49 40" fill="none" xmlns="http://www.w3.org/2000/svg">
<path fill-rule="evenodd" clip-rule="evenodd" d="M14.3769 33.106C13.5472 33.106 12.8746 32.4334 12.8746 31.6037L12.8746 24.9522C12.8746 24.1225 13.5472 23.4499 14.3769 23.4499C15.2066 23.4499 15.8792 24.1225 15.8792 24.9522L15.8792 31.6037C15.8792 32.4334 15.2066 33.106 14.3769 33.106ZM14.6515 38.7143C14.4729 38.4493 14.3774 38.137 14.3774 37.8173L14.3774 36.8625C14.3774 35.8147 15.2269 34.9652 16.2747 34.9652L17.3946 34.9652C18.0099 34.9652 18.5088 34.4664 18.5088 33.851C18.5088 33.2357 19.0076 32.7369 19.6229 32.7369L28.2864 32.7369C28.9017 32.7369 29.4005 33.2357 29.4005 33.851C29.4005 34.4664 29.8994 34.9652 30.5147 34.9652L31.6346 34.9652C32.6824 34.9652 33.5319 35.8147 33.5319 36.8625L33.5319 38.1467C33.5319 38.4874 33.3956 38.8139 33.1533 39.0534C32.9146 39.2895 32.5925 39.4219 32.2567 39.4219L15.9819 39.4219C15.4484 39.4219 14.9498 39.1567 14.6515 38.7143ZM30.9291 23.395L43.1963 23.395C45.9496 23.395 48.1817 21.1629 48.1816 18.4096L48.1815 5.20101C48.1814 2.44763 45.9494 0.215568 43.196 0.215568L5.28519 0.215565C2.5318 0.215565 0.299766 2.44762 0.2998 5.20101L0.299967 18.4096C0.300001 21.1629 2.53209 23.395 5.28547 23.395L16.9993 23.395C17.004 23.438 17.0065 23.4817 17.0065 23.5259L17.0065 29.7304C17.0065 30.7782 17.8559 31.6277 18.9038 31.6277L29.0055 31.6277C30.0534 31.6277 30.9028 30.7782 30.9029 29.7304L30.9029 23.6575C30.9029 23.5676 30.9119 23.4798 30.9291 23.395ZM32.0285 31.4159C32.0285 32.3493 32.7851 33.106 33.7186 33.106C34.652 33.106 35.4087 32.3493 35.4087 31.4159L35.4087 25.14C35.4087 24.2066 34.652 23.4499 33.7186 23.4499C32.7851 23.4499 32.0285 24.2066 32.0285 25.14L32.0285 31.4159Z" fill="#67696E"/>
</svg>
