<svg width="209" height="172" viewBox="0 0 209 172" fill="none" xmlns="http://www.w3.org/2000/svg">
<path fill-rule="evenodd" clip-rule="evenodd" d="M61.5663 143.78C57.9629 143.78 55.0418 140.859 55.0418 137.255L55.0418 108.447C55.0418 104.844 57.9629 101.923 61.5664 101.923C65.1698 101.923 68.0909 104.844 68.0909 108.447L68.0909 137.255C68.0909 140.859 65.1698 143.78 61.5663 143.78ZM62.7567 168.096C61.9795 166.945 61.5642 165.589 61.5642 164.2L61.5642 160.082C61.5642 155.531 65.2535 151.841 69.8044 151.841L74.6771 151.841C77.3445 151.841 79.5068 149.679 79.5068 147.012C79.5068 144.344 81.6692 142.182 84.3365 142.182L121.98 142.182C124.648 142.182 126.81 144.344 126.81 147.012C126.81 149.679 128.972 151.841 131.64 151.841L136.513 151.841C141.063 151.841 144.753 155.531 144.753 160.082L144.753 165.627C144.753 167.107 144.16 168.526 143.106 169.565C142.071 170.587 140.675 171.16 139.22 171.16L68.5243 171.16C66.2121 171.16 64.0509 170.012 62.7567 168.096ZM133.507 101.446L186.725 101.446C198.683 101.446 208.377 91.7521 208.377 79.7941L208.376 22.429C208.376 10.471 198.682 0.777084 186.724 0.777082L22.0764 0.777068C10.1184 0.777067 0.42462 10.471 0.424772 22.429L0.425499 79.7941C0.425651 91.7521 10.1197 101.446 22.0777 101.446L72.9165 101.446C72.9598 101.714 72.9822 101.989 72.9822 102.27L72.9822 129.141C72.9822 133.692 76.6715 137.381 81.2224 137.381L125.094 137.381C129.645 137.381 133.335 133.692 133.335 129.141L133.335 102.843C133.335 102.361 133.394 101.893 133.507 101.446ZM138.23 136.44C138.23 140.494 141.517 143.78 145.571 143.78C149.624 143.78 152.911 140.494 152.911 136.44L152.911 109.263C152.911 105.209 149.624 101.923 145.571 101.923C141.517 101.923 138.23 105.209 138.23 109.263L138.23 136.44Z" fill="url(#paint0_linear_67194_467)"/>
<defs>
<linearGradient id="paint0_linear_67194_467" x1="104.401" y1="171.16" x2="104.401" y2="0.777075" gradientUnits="userSpaceOnUse">
<stop stop-color="#293240" stop-opacity="0"/>
<stop offset="1" stop-color="#293240"/>
</linearGradient>
</defs>
</svg>
