<svg width="208" height="171" viewBox="0 0 208 171" fill="none" xmlns="http://www.w3.org/2000/svg">
<path fill-rule="evenodd" clip-rule="evenodd" d="M146.811 27.3802C150.414 27.3802 153.335 30.3013 153.335 33.9048V62.7128C153.335 66.3162 150.414 69.2374 146.811 69.2374C143.207 69.2374 140.286 66.3162 140.286 62.7128V33.9048C140.286 30.3013 143.207 27.3802 146.811 27.3802ZM145.62 3.06426C146.397 4.21486 146.813 5.57162 146.813 6.9601V11.0786C146.813 15.6295 143.123 19.3187 138.573 19.3187H133.7C131.032 19.3187 128.87 21.481 128.87 24.1484C128.87 26.8158 126.708 28.9781 124.04 28.9781H86.3966C83.7292 28.9781 81.5669 26.8158 81.5669 24.1484C81.5669 21.481 79.4045 19.3187 76.7372 19.3187H71.8644C67.3135 19.3187 63.6243 15.6295 63.6243 11.0786V5.53285C63.6243 4.05287 64.2172 2.63458 65.2705 1.59496C66.306 0.573008 67.7023 0 69.1571 0H139.853C142.165 0 144.326 1.14823 145.62 3.06426ZM74.8707 69.7122H21.6517C9.69363 69.7122 -0.000150899 79.4061 1.76176e-09 91.3641L0.000723903 148.729C0.000874804 160.687 9.69487 170.381 21.6529 170.381H186.301C198.259 170.381 207.952 160.687 207.952 148.729L207.951 91.3641C207.951 79.4061 198.257 69.7122 186.299 69.7122H135.46C135.417 69.4446 135.395 69.17 135.395 68.8902V42.0195C135.395 37.4686 131.705 33.7793 127.155 33.7793H83.2825C78.7315 33.7793 75.0423 37.4686 75.0423 42.0195V68.3176C75.0423 68.7987 74.9828 69.2659 74.8707 69.7122ZM70.1465 34.7203C70.1465 30.6665 66.8602 27.3802 62.8063 27.3802C58.7525 27.3802 55.4662 30.6665 55.4662 34.7203V61.8972C55.4662 65.9511 58.7525 69.2374 62.8063 69.2374C66.8602 69.2374 70.1465 65.9511 70.1465 61.8972V34.7203Z" fill="#F64343"/>
<rect x="2.88826" y="2.88823" width="184.847" height="77.9821" rx="14.4411" transform="matrix(1 0 1.24859e-05 1 8.64938 77.9883)" stroke="#2C2E36" stroke-width="5.77646"/>
</svg>
